<svg width="280" height="39" viewBox="0 0 280 39" fill="none" xmlns="http://www.w3.org/2000/svg">
<path d="M-0.000440121 38.2236V-0.000103474H7.64431V7.64464H15.2891V15.2894H22.9338V22.9341H15.2891V15.2894H7.64431V38.2236H-0.000440121ZM30.5785 38.2236V15.2894H22.9338V7.64464H30.5785V-0.000103474H38.2233V38.2236H30.5785ZM51.9838 38.2236V30.5789H44.3391V7.64464H51.9838V-0.000103474H67.2733V7.64464H74.9181V30.5789H67.2733V38.2236H51.9838ZM51.9838 30.2731H67.2733V7.95043H51.9838V30.2731ZM81.0339 38.2236V-0.000103474H88.6786V7.64464H96.3234V15.2894H103.968V22.9341H96.3234V15.2894H88.6786V38.2236H81.0339ZM111.613 38.2236V15.2894H103.968V7.64464H111.613V-0.000103474H119.258V38.2236H111.613ZM125.373 38.2236V-0.000103474H133.018V7.64464H140.663V15.2894H148.308V22.9341H140.663V15.2894H133.018V38.2236H125.373ZM155.952 38.2236V15.2894H148.308V7.64464H155.952V-0.000103474H163.597V38.2236H155.952ZM169.713 38.2236V-0.000103474H192.647V7.64464H177.358V15.2894H192.647V22.9341H177.358V30.5789H192.647V38.2236H169.713ZM198.763 38.2236V-0.000103474H206.408V7.64464H214.052V15.2894H221.697V22.9341H229.342V-0.000103474H236.987V38.2236H229.342V30.5789H221.697V22.9341H214.052V15.2894H206.408V38.2236H198.763ZM250.747 38.2236V7.64464H243.103V-0.000103474H266.037V7.64464H258.392V38.2236H250.747ZM272.153 38.2236V30.5789H279.797V38.2236H272.153Z" fill="black"/>
</svg>
