<svg width="352" height="56" viewBox="0 0 352 56" fill="none" xmlns="http://www.w3.org/2000/svg">
<path d="M1.22569 54.8799L0.490688 50.5515L5.06402 49.3265V21.5599L0.817355 21.6416L0.00068808 16.9049L10.209 15.1082L12.5774 18.2932C13.884 17.4221 15.4085 16.7143 17.1507 16.1699C18.9474 15.571 20.6896 15.2715 22.3774 15.2715C24.4462 15.2715 26.3246 15.5982 28.0124 16.2515C29.7001 16.8504 31.0885 17.8304 32.1774 19.1916C33.6474 18.0482 35.0901 17.2043 36.5057 16.6599C37.9212 16.1154 39.2551 15.7615 40.5074 15.5982C41.814 15.3804 42.9574 15.2715 43.9374 15.2715C46.3874 15.2715 48.5107 15.6799 50.3074 16.4965C52.1585 17.3132 53.6012 18.5654 54.6357 20.2532C55.6701 21.8865 56.1874 23.9827 56.1874 26.5416V49.4082L60.7607 50.4699L60.679 54.8799H44.019L43.8557 50.4699L48.5924 49.4082V28.0115C48.5924 25.8338 48.0751 24.2277 47.0407 23.1932C46.0062 22.1588 44.5362 21.6416 42.6307 21.6416C41.2151 21.6416 39.7451 21.9682 38.2207 22.6215C36.7507 23.2204 35.4985 24.0643 34.464 25.1532V49.4899L39.119 50.4699L39.0374 54.8799H22.6224L22.459 50.4699L26.869 49.4082V28.0115C26.869 25.8338 26.3518 24.2277 25.3174 23.1932C24.2829 22.1588 22.8129 21.6416 20.9074 21.6416C19.274 21.6416 17.6951 21.9954 16.1707 22.7032C14.6462 23.411 13.5029 24.146 12.7407 24.9082V49.4082L17.559 50.4699L17.4774 54.8799H1.22569ZM82.4834 55.2065C79.1078 55.2065 76.1134 54.3354 73.5 52.5932C70.8867 50.851 68.845 48.4554 67.375 45.4065C65.905 42.3577 65.17 38.9004 65.17 35.0349C65.17 31.006 65.9323 27.5215 67.4567 24.5815C68.9812 21.5871 71.0228 19.2732 73.5817 17.6399C76.195 16.0065 79.1623 15.1899 82.4834 15.1899C85.8589 15.1899 88.8534 16.0338 91.4667 17.7215C94.08 19.3549 96.1217 21.6688 97.5917 24.6632C99.0617 27.6577 99.7967 31.1149 99.7967 35.0349C99.7967 38.9549 99.0617 42.4393 97.5917 45.4882C96.1217 48.5371 94.08 50.9327 91.4667 52.6749C88.8534 54.3627 85.8589 55.2065 82.4834 55.2065ZM82.4834 48.9182C84.5523 48.9182 86.2945 48.3738 87.71 47.2849C89.1256 46.1415 90.1873 44.5627 90.895 42.5482C91.6028 40.5338 91.9567 38.1654 91.9567 35.4432C91.9567 32.7754 91.6028 30.3799 90.895 28.2565C90.1873 26.1332 89.1256 24.4727 87.71 23.2749C86.2945 22.0771 84.5523 21.4782 82.4834 21.4782C80.9045 21.4782 79.5162 21.8593 78.3184 22.6215C77.175 23.3293 76.195 24.3638 75.3784 25.7249C74.6162 27.0315 74.0445 28.556 73.6634 30.2982C73.2823 31.986 73.0917 33.8099 73.0917 35.7699C73.0917 38.4377 73.4456 40.7788 74.1534 42.7932C74.9156 44.7532 75.9773 46.2777 77.3384 47.3665C78.7539 48.401 80.4689 48.9182 82.4834 48.9182ZM106.021 54.8799L105.286 50.5515L109.859 49.3265V21.5599L105.612 21.6416L104.796 16.9049L115.004 15.1082L117.372 18.2932C118.679 17.4221 120.203 16.7143 121.946 16.1699C123.742 15.571 125.484 15.2715 127.172 15.2715C129.241 15.2715 131.119 15.5982 132.807 16.2515C134.495 16.8504 135.883 17.8304 136.972 19.1916C138.442 18.0482 139.885 17.2043 141.301 16.6599C142.716 16.1154 144.05 15.7615 145.302 15.5982C146.609 15.3804 147.752 15.2715 148.732 15.2715C151.182 15.2715 153.306 15.6799 155.102 16.4965C156.953 17.3132 158.396 18.5654 159.431 20.2532C160.465 21.8865 160.982 23.9827 160.982 26.5416V49.4082L165.556 50.4699L165.474 54.8799H148.814L148.651 50.4699L153.387 49.4082V28.0115C153.387 25.8338 152.87 24.2277 151.836 23.1932C150.801 22.1588 149.331 21.6416 147.426 21.6416C146.01 21.6416 144.54 21.9682 143.016 22.6215C141.546 23.2204 140.293 24.0643 139.259 25.1532V49.4899L143.914 50.4699L143.832 54.8799H127.417L127.254 50.4699L131.664 49.4082V28.0115C131.664 25.8338 131.147 24.2277 130.112 23.1932C129.078 22.1588 127.608 21.6416 125.702 21.6416C124.069 21.6416 122.49 21.9954 120.966 22.7032C119.441 23.411 118.298 24.146 117.536 24.9082V49.4082L122.354 50.4699L122.272 54.8799H106.021ZM170.939 54.8799L170.204 50.5515L174.778 49.3265V21.5599L170.531 21.6416L169.714 16.9049L179.923 15.1082L182.291 18.2932C183.598 17.4221 185.122 16.7143 186.864 16.1699C188.661 15.571 190.403 15.2715 192.091 15.2715C194.16 15.2715 196.038 15.5982 197.726 16.2515C199.414 16.8504 200.802 17.8304 201.891 19.1916C203.361 18.0482 204.804 17.2043 206.219 16.6599C207.635 16.1154 208.969 15.7615 210.221 15.5982C211.528 15.3804 212.671 15.2715 213.651 15.2715C216.101 15.2715 218.224 15.6799 220.021 16.4965C221.872 17.3132 223.315 18.5654 224.349 20.2532C225.384 21.8865 225.901 23.9827 225.901 26.5416V49.4082L230.474 50.4699L230.393 54.8799H213.733L213.569 50.4699L218.306 49.4082V28.0115C218.306 25.8338 217.789 24.2277 216.754 23.1932C215.72 22.1588 214.25 21.6416 212.344 21.6416C210.929 21.6416 209.459 21.9682 207.934 22.6215C206.464 23.2204 205.212 24.0643 204.178 25.1532V49.4899L208.833 50.4699L208.751 54.8799H192.336L192.173 50.4699L196.583 49.4082V28.0115C196.583 25.8338 196.065 24.2277 195.031 23.1932C193.996 22.1588 192.526 21.6416 190.621 21.6416C188.988 21.6416 187.409 21.9954 185.884 22.7032C184.36 23.411 183.216 24.146 182.454 24.9082V49.4082L187.273 50.4699L187.191 54.8799H170.939ZM253.095 55.2065C249.556 55.2065 246.426 54.4171 243.704 52.8382C240.981 51.2593 238.831 48.9999 237.252 46.0599C235.727 43.1199 234.965 39.6354 234.965 35.6065C234.965 31.3054 235.755 27.6577 237.334 24.6632C238.967 21.6143 241.117 19.3004 243.785 17.7215C246.453 16.0882 249.42 15.2715 252.687 15.2715C254.919 15.2715 257.015 15.6799 258.975 16.4965C260.99 17.3132 262.623 18.5382 263.875 20.1715C265.127 21.7504 265.754 23.7649 265.754 26.2149C265.754 28.7738 265.155 30.8971 263.957 32.5849C262.814 34.2727 261.262 35.6065 259.302 36.5865C257.342 37.5665 255.164 38.2743 252.769 38.7099C250.373 39.091 247.95 39.2815 245.5 39.2815L243.05 39.1999C243.431 41.9765 244.493 44.3177 246.235 46.2232C247.977 48.0743 250.618 48.9999 254.157 48.9999C256.28 48.9999 258.131 48.6188 259.71 47.8565C261.344 47.0943 262.705 46.2504 263.794 45.3249L265.509 51.1232C264.746 51.831 263.739 52.5115 262.487 53.1649C261.235 53.7638 259.792 54.2538 258.159 54.6349C256.58 55.016 254.892 55.2065 253.095 55.2065ZM242.969 33.3199L245.01 33.4015C246.262 33.4015 247.624 33.3199 249.094 33.1565C250.618 32.9932 252.034 32.6938 253.34 32.2582C254.701 31.7682 255.79 31.0604 256.607 30.1349C257.478 29.1549 257.914 27.9027 257.914 26.3782C257.914 24.6904 257.369 23.4654 256.28 22.7032C255.191 21.941 253.994 21.5599 252.687 21.5599C250.836 21.5599 249.202 22.1043 247.787 23.1932C246.371 24.2277 245.228 25.6432 244.357 27.4399C243.54 29.2365 243.077 31.1966 242.969 33.3199ZM272.305 54.8799L271.651 50.4699L276.143 49.3265V21.5599L271.896 21.6416L271.08 16.9049L281.288 15.1082L283.656 18.2932C284.909 17.4221 286.406 16.7143 288.148 16.1699C289.89 15.571 291.66 15.2715 293.456 15.2715C295.852 15.2715 297.948 15.6799 299.745 16.4965C301.596 17.3132 303.011 18.5654 303.991 20.2532C305.026 21.8865 305.543 23.9827 305.543 26.5416V49.4899L310.28 50.4699V54.8799H293.62L293.456 50.4699L297.948 49.4082V28.0115C297.948 25.8338 297.431 24.2277 296.396 23.1932C295.362 22.1588 293.892 21.6416 291.986 21.6416C290.353 21.6416 288.774 21.9954 287.25 22.7032C285.725 23.411 284.582 24.146 283.82 24.9082V49.4082L288.638 50.4699L288.556 54.8799H272.305ZM328.2 55.2065C326.458 55.2065 324.907 54.8527 323.545 54.1449C322.184 53.4371 321.123 52.321 320.36 50.7965C319.598 49.2177 319.217 47.2304 319.217 44.8349L319.38 21.3149H313.01L311.785 16.0882L312.357 15.2715H319.462L319.544 1.55155L326.322 -0.000119606L326.975 1.14321L326.894 15.2715H335.387C335.659 15.2715 335.795 15.4349 335.795 15.7615V21.3149H326.894V44.9982C326.894 46.5771 327.139 47.6115 327.629 48.1015C328.173 48.5915 328.935 48.8365 329.915 48.8365C330.95 48.8365 331.984 48.5371 333.019 47.9382C334.053 47.3393 334.788 46.8765 335.224 46.5499L337.02 52.0215C336.313 52.6749 335.197 53.3827 333.672 54.1449C332.148 54.8527 330.324 55.2065 328.2 55.2065ZM346.51 55.2065C345.149 55.2065 343.978 54.7438 342.998 53.8182C342.073 52.8382 341.61 51.6677 341.61 50.3065C341.61 48.9454 342.073 47.8021 342.998 46.8765C343.978 45.8965 345.149 45.4065 346.51 45.4065C347.871 45.4065 349.014 45.8965 349.94 46.8765C350.92 47.8021 351.41 48.9454 351.41 50.3065C351.41 51.6677 350.92 52.8382 349.94 53.8182C349.014 54.7438 347.871 55.2065 346.51 55.2065Z" fill="black"/>
</svg>
