<svg width="253" height="37" viewBox="0 0 253 37" fill="none" xmlns="http://www.w3.org/2000/svg">
<path d="M0 36.1475V6.98242H7.57324V12.085H7.89551C9.13086 8.70117 12.085 6.60645 16.0059 6.60645C20.0342 6.60645 22.9883 8.70117 23.9551 12.085H24.2236C25.459 8.75488 28.7354 6.60645 33.0322 6.60645C38.457 6.60645 42.2168 10.2051 42.2168 16.543V36.1475H34.2676V18.1006C34.2676 14.7705 32.334 13.1592 29.7021 13.1592C26.6943 13.1592 24.9756 15.2539 24.9756 18.3154V36.1475H17.2412V17.8857C17.2412 14.9854 15.415 13.1592 12.7295 13.1592C10.0439 13.1592 7.94922 15.3076 7.94922 18.6377V36.1475H0ZM58.6953 36.7383C49.8867 36.7383 44.4082 30.6689 44.4082 21.6455C44.4082 12.6221 49.8867 6.60645 58.6953 6.60645C67.5039 6.60645 73.0361 12.6221 73.0361 21.6455C73.0361 30.6689 67.5039 36.7383 58.6953 36.7383ZM58.749 30.5615C62.8311 30.5615 64.9258 26.748 64.9258 21.6455C64.9258 16.4893 62.8311 12.6758 58.749 12.6758C54.6133 12.6758 52.4648 16.4893 52.4648 21.6455C52.4648 26.748 54.6133 30.5615 58.749 30.5615ZM75.2812 36.1475V6.98242H82.8545V12.085H83.1768C84.4121 8.70117 87.3662 6.60645 91.2871 6.60645C95.3154 6.60645 98.2695 8.70117 99.2363 12.085H99.5049C100.74 8.75488 104.017 6.60645 108.313 6.60645C113.738 6.60645 117.498 10.2051 117.498 16.543V36.1475H109.549V18.1006C109.549 14.7705 107.615 13.1592 104.983 13.1592C101.976 13.1592 100.257 15.2539 100.257 18.3154V36.1475H92.5225V17.8857C92.5225 14.9854 90.6963 13.1592 88.0107 13.1592C85.3252 13.1592 83.2305 15.3076 83.2305 18.6377V36.1475H75.2812ZM120.871 36.1475V6.98242H128.444V12.085H128.767C130.002 8.70117 132.956 6.60645 136.877 6.60645C140.905 6.60645 143.859 8.70117 144.826 12.085H145.095C146.33 8.75488 149.606 6.60645 153.903 6.60645C159.328 6.60645 163.088 10.2051 163.088 16.543V36.1475H155.139V18.1006C155.139 14.7705 153.205 13.1592 150.573 13.1592C147.565 13.1592 145.847 15.2539 145.847 18.3154V36.1475H138.112V17.8857C138.112 14.9854 136.286 13.1592 133.601 13.1592C130.915 13.1592 128.82 15.3076 128.82 18.6377V36.1475H120.871ZM179.674 36.7383C170.758 36.7383 165.279 30.9375 165.279 21.6992C165.279 12.6758 170.812 6.60645 179.352 6.60645C187.032 6.60645 193.048 11.4404 193.048 21.377V23.6328H173.121C173.121 28.0371 175.753 30.7764 179.835 30.7764C182.521 30.7764 184.454 29.5947 185.26 27.8223H192.833C191.705 33.1934 186.871 36.7383 179.674 36.7383ZM173.121 18.6377H185.528C185.528 15.0928 183.058 12.5684 179.513 12.5684C175.86 12.5684 173.255 15.2808 173.121 18.6377ZM203.242 19.2822V36.1475H195.293V6.98242H202.866V12.085H203.188C204.531 8.70117 207.646 6.60645 211.943 6.60645C218.013 6.60645 222.041 10.7422 221.987 17.5635V36.1475H214.092V18.96C214.092 15.3613 212.104 13.2129 208.828 13.2129C205.498 13.2129 203.242 15.415 203.242 19.2822ZM240.775 6.98242V12.9443H235.297V27.1777C235.297 29.4873 236.425 30.0781 238.036 30.1318C238.842 30.1318 240.238 30.0781 241.205 29.9707V36.2549C240.346 36.416 238.949 36.5234 236.962 36.5234C231.215 36.5234 227.294 33.9453 227.348 28.3057V12.9443H223.319V6.98242H227.348V0H235.297V6.98242H240.775ZM247.693 36.6309C245.169 36.6309 243.128 34.5898 243.182 32.1191C243.128 29.6484 245.169 27.6611 247.693 27.6611C250.057 27.6611 252.151 29.6484 252.151 32.1191C252.151 34.5898 250.057 36.6309 247.693 36.6309Z" fill="white"/>
</svg>
